<?xml version="1.0" encoding="utf-8"?>
<!-- Generator: Adobe Illustrator 16.0.0, SVG Export Plug-In . SVG Version: 6.00 Build 0)  -->
<!DOCTYPE svg PUBLIC "-//W3C//DTD SVG 1.1//EN" "http://www.w3.org/Graphics/SVG/1.1/DTD/svg11.dtd">
<svg version="1.1" id="Layer_1" xmlns="http://www.w3.org/2000/svg" xmlns:xlink="http://www.w3.org/1999/xlink" x="0px" y="0px"
	 width="128px" height="128px" viewBox="0 0 128 128" enable-background="new 0 0 128 128" xml:space="preserve">
<g>
	<g>
		<path fill="#282D33" d="M80.481,16.364h-4C76.481,9.546,70.86,4,63.95,4S51.419,9.546,51.419,16.364h-4
			C47.419,7.341,54.835,0,63.95,0S80.481,7.341,80.481,16.364z"/>
	</g>
	<g>
		<path fill="#282D33" d="M94.637,66.579h-0.491v-4h0.491c2.122,0,3.849-1.696,3.849-3.781V48.2c0-2.084-1.727-3.78-3.849-3.78
			h-0.491v-4h0.491c4.328,0,7.849,3.49,7.849,7.78v10.598C102.485,63.088,98.965,66.579,94.637,66.579z"/>
	</g>
	<g>
		<path fill="#282D33" d="M108.349,128h-4v-14.499c0-5.292-5.049-9.597-11.255-9.597H34.91c-6.208,0-11.259,4.305-11.259,9.597V128
			h-4v-14.499c0-7.497,6.845-13.597,15.259-13.597h58.184c8.411,0,15.255,6.1,15.255,13.597V128z"/>
	</g>
	<g>
		<path fill="#282D33" d="M64.001,95.973c-17.436,0-31.619-14.03-31.619-31.275V41.276c0-17.244,14.184-31.273,31.619-31.273
			c17.435,0,31.619,14.029,31.619,31.273v23.421C95.62,81.942,81.436,95.973,64.001,95.973z M64.001,14.003
			c-15.229,0-27.619,12.234-27.619,27.273v23.421c0,15.04,12.39,27.275,27.619,27.275S91.62,79.737,91.62,64.697V41.276
			C91.62,26.237,79.23,14.003,64.001,14.003z"/>
	</g>
	<g>
		<path fill="#282D33" d="M36.382,66.736l-2.205-0.228c-3.421-0.353-9.53-3.231-9.53-7.711V48.2c0-4.48,6.11-7.357,9.53-7.709
			l2.205-0.227V66.736z M32.382,45.041c-1.968,0.78-3.735,2.161-3.735,3.159v10.598c0,0.998,1.767,2.379,3.735,3.16V45.041z"/>
	</g>
	<g>
		<rect x="62.362" y="109.924" fill="#282D33" width="4" height="4.815"/>
	</g>
	<g>
		<rect x="62.362" y="120.699" fill="#282D33" width="4" height="4.818"/>
	</g>
	<g>
		<path fill="#282D33" d="M95.62,48.729H82.096l-4.029-6.896l-4.031,6.896H32.382v-7.454c0-17.244,14.184-31.273,31.619-31.273
			c17.435,0,31.619,14.029,31.619,31.273V48.729z M84.391,44.729h7.229v-3.454c0-15.039-12.39-27.273-27.619-27.273
			S36.382,26.236,36.382,41.275v3.454H71.74l6.328-10.824L84.391,44.729z"/>
	</g>
</g>
</svg>
