<?xml version="1.0" encoding="utf-8"?>
<!-- Generator: Adobe Illustrator 16.0.0, SVG Export Plug-In . SVG Version: 6.00 Build 0)  -->
<!DOCTYPE svg PUBLIC "-//W3C//DTD SVG 1.1//EN" "http://www.w3.org/Graphics/SVG/1.1/DTD/svg11.dtd">
<svg version="1.1" id="Layer_1" xmlns="http://www.w3.org/2000/svg" xmlns:xlink="http://www.w3.org/1999/xlink" x="0px" y="0px"
	 width="128px" height="128px" viewBox="0 0 128 128" enable-background="new 0 0 128 128" xml:space="preserve">
<g>
	<g>
		<path fill="#282D33" d="M96.93,62.042h-0.525v-4h0.525c2.364,0,4.287-1.882,4.287-4.196V42.492c0-2.313-1.923-4.194-4.287-4.194
			h-0.525c-0.249,0-0.515,0.05-0.787,0.149l-1.367-3.759c0.712-0.259,1.437-0.391,2.154-0.391h0.525
			c4.569,0,8.287,3.676,8.287,8.194v11.354C105.217,58.365,101.499,62.042,96.93,62.042z"/>
	</g>
	<g>
		<path fill="#282D33" d="M111.521,128h-4v-15.534c0-5.749-5.495-10.426-12.25-10.426H32.729c-6.755,0-12.251,4.677-12.251,10.426
			V128h-4v-15.534c0-7.954,7.29-14.426,16.251-14.426h62.542c8.96,0,16.25,6.472,16.25,14.426V128z"/>
	</g>
	<g>
		<path fill="#282D33" d="M64,93.539c-18.659,0-33.839-14.971-33.839-33.372V35.072h4v25.095c0,16.196,13.386,29.372,29.839,29.372
			c16.454,0,29.84-13.176,29.84-29.372V34.003h4v26.164C97.84,78.568,82.659,93.539,64,93.539z"/>
	</g>
	<g>
		<path fill="#282D33" d="M33.876,62.702H21.843V19.808c0-7.304,6.018-13.246,13.414-13.246h4.031C42.447,2.434,47.355,0,52.629,0
			h55.555v13.871c0,9.104-7.504,16.511-16.728,16.511H39.91c-3.327,0-6.034,2.654-6.034,5.916V62.702z M25.843,58.702h4.033V36.298
			c0-5.468,4.501-9.916,10.034-9.916h51.546c7.018,0,12.728-5.612,12.728-12.511V4H52.629c-4.301,0-8.282,2.12-10.649,5.671
			l-0.594,0.891h-6.129c-5.191,0-9.414,4.148-9.414,9.246V58.702z"/>
	</g>
	<g>
		<path fill="#282D33" d="M34.16,62.192l-2.204-0.225c-3.629-0.371-10.111-3.402-10.111-8.121V42.492
			c0-4.716,6.482-7.747,10.111-8.119l2.204-0.226V62.192z M30.16,38.898c-2.195,0.815-4.315,2.346-4.315,3.594v11.354
			c0,1.249,2.121,2.781,4.315,3.596V38.898z"/>
	</g>
	<g>
		<rect x="70.422" y="101.754" fill="#282D33" width="4" height="14.518"/>
	</g>
	<g>
		<rect x="59.711" y="101.754" fill="#282D33" width="4" height="14.518"/>
	</g>
</g>
</svg>
